<svg xmlns="http://www.w3.org/2000/svg" width="47" height="46" viewBox="0 0 47 46" fill="none"><g clip-path="url(#clip0_145_371)"><path d="M12.4624 45.9906C12.3547 45.9906 12.2462 45.9776 12.1392 45.9512C11.6809 45.8381 11.3154 45.4933 11.1754 45.0426L8.7639 37.2729L0.99421 34.8612C0.543378 34.7213 0.198809 34.3558 0.0856293 33.8976C-0.0276401 33.4394 0.107098 32.9554 0.440887 32.6217L17.2172 15.8454C17.4699 15.5927 17.8126 15.4507 18.1699 15.4507C18.5273 15.4507 18.87 15.5927 19.1226 15.8454L30.1913 26.9141C30.7175 27.4403 30.7175 28.2933 30.1913 28.8195L13.415 45.5959C13.1594 45.8517 12.8154 45.9906 12.4624 45.9906Z" fill="#FF3980"></path><path d="M33.576 45.9905C33.223 45.9905 32.879 45.8515 32.6233 45.5958L15.847 28.8195C15.3208 28.2933 15.3208 27.4403 15.847 26.9141L26.9157 15.8454C27.1683 15.5927 27.511 15.4507 27.8683 15.4507C28.2257 15.4507 28.5684 15.5927 28.821 15.8454L45.5974 32.6217C45.9312 32.9554 46.0659 33.4395 45.9526 33.8976C45.8395 34.3558 45.4948 34.7213 45.0441 34.8613L37.2744 37.2729L34.8628 45.0426C34.7229 45.4933 34.3574 45.838 33.8991 45.9512C33.7921 45.9775 33.6836 45.9905 33.576 45.9905Z" fill="#CC0099"></path><path d="M34.8904 30.0212C41.4492 23.4624 41.4492 12.8286 34.8904 6.26983C28.3317 -0.288931 17.6978 -0.288931 11.1391 6.26983C4.5803 12.8286 4.5803 23.4624 11.1391 30.0212C17.6978 36.5799 28.3317 36.5799 34.8904 30.0212Z" fill="#FFF26C"></path><path fill-rule="evenodd" clip-rule="evenodd" d="M23.0192 1.34766V34.9422C32.2708 34.9422 39.8164 27.3966 39.8164 18.1449C39.8164 8.89332 32.2708 1.34766 23.0192 1.34766Z" fill="#FFDB00"></path><path d="M23.0191 36.2893C13.0142 36.2893 4.87447 28.1496 4.87447 18.1447C4.87447 8.13968 13.0142 0 23.0191 0C33.0241 0 41.1638 8.13968 41.1638 18.1447C41.1638 28.1496 33.0241 36.2893 23.0191 36.2893ZM23.0191 2.69475C14.5 2.69475 7.56923 9.62556 7.56923 18.1447C7.56923 26.6638 14.5 33.5946 23.0191 33.5946C31.5382 33.5946 38.469 26.6638 38.469 18.1447C38.469 9.62556 31.5382 2.69475 23.0191 2.69475Z" fill="#FDBF00"></path><path d="M23.0191 31.0796C15.8868 31.0796 10.0843 25.2771 10.0843 18.1448C10.0843 11.0125 15.8868 5.20996 23.0191 5.20996C30.1514 5.20996 35.9539 11.0125 35.9539 18.1448C35.9539 25.2771 30.1515 31.0796 23.0191 31.0796Z" fill="#FDBF00"></path><path d="M23.0192 0V2.69475C31.5383 2.69475 38.469 9.62556 38.469 18.1447C38.469 26.6638 31.5382 33.5946 23.0192 33.5946V36.2893C33.0242 36.2893 41.1638 28.1496 41.1638 18.1447C41.1638 8.13968 33.0242 0 23.0192 0Z" fill="#FF8856"></path><path d="M23.0192 5.20996V31.0796C30.1515 31.0796 35.9539 25.2771 35.9539 18.1448C35.9539 11.0125 30.1515 5.21005 23.0192 5.20996Z" fill="#FF8856"></path><path d="M26.8496 24.9938C26.6911 24.9938 26.5318 24.9658 26.3791 24.9089L23.0191 23.6564L19.6592 24.9089C19.2362 25.0666 18.7621 25.002 18.3967 24.7364C18.0312 24.471 17.8231 24.0401 17.8424 23.5889L17.9954 20.0064L15.7659 17.198C15.4852 16.8442 15.4003 16.3734 15.5398 15.9439C15.6793 15.5145 16.0247 15.1834 16.4598 15.0623L19.9142 14.1006L21.8962 11.1124C22.1459 10.736 22.5675 10.5098 23.019 10.5098C23.4706 10.5098 23.8922 10.736 24.1419 11.1124L26.1239 14.1006L29.5783 15.0623C30.0134 15.1835 30.3587 15.5145 30.4983 15.9439C30.6379 16.3734 30.5529 16.8443 30.2722 17.198L28.0427 20.0063L28.1957 23.5888C28.215 24.04 28.0069 24.4709 27.6414 24.7363C27.4082 24.9061 27.1303 24.9938 26.8496 24.9938Z" fill="#FFF26C"></path><path d="M30.4985 15.9439C30.3589 15.5144 30.0135 15.1834 29.5784 15.0623L26.124 14.1006L24.1419 11.1124C23.8923 10.736 23.4708 10.5098 23.0192 10.5098V23.6564L26.379 24.9088C26.5317 24.9658 26.6911 24.9937 26.8495 24.9937C27.1302 24.9937 27.4081 24.906 27.6415 24.7363C28.0069 24.4709 28.2151 24.04 28.1958 23.5888L28.0428 20.0063L30.2722 17.198C30.5531 16.8443 30.6381 16.3734 30.4985 15.9439Z" fill="#FFDB00"></path></g><defs><clipPath id="clip0_145_371"><rect width="45.9904" height="45.9904" fill="white" transform="translate(0.0239258)"></rect></clipPath></defs></svg>